<svg width="253" height="242" viewBox="0 0 253 242" fill="none" xmlns="http://www.w3.org/2000/svg">
<path d="M167.359 91.3762C177.165 91.3762 187.093 87.9895 187.093 81.5162C187.093 75.043 177.165 71.6563 167.359 71.6563C157.552 71.6563 147.625 75.043 147.625 81.5162C147.625 87.9895 157.552 91.3762 167.359 91.3762ZM167.359 77.5005C176.344 77.5005 181.198 80.4842 181.248 81.5162C181.187 82.5481 176.315 85.5319 167.359 85.5319C158.402 85.5319 153.53 82.5483 153.469 81.5162C153.519 80.4844 158.374 77.5005 167.359 77.5005Z" fill="white"/>
<path d="M227.188 173.527C241.567 144.12 242.942 109.086 231.141 78.58C220.06 49.9355 197.881 26.4063 170.141 13.3054C154.341 5.84409 136.999 2 119.529 2C89.0994 2 59.4291 13.8783 37.3389 34.7918C13.733 57.1408 0.65909 88.0293 0.0211621 120.425C-0.55717 149.799 10.7485 179.224 30.2308 201.136C50.144 223.54 78.5463 237.917 108.386 240.737C139.31 243.659 171.46 234.001 195.341 214.042C208.691 202.885 219.605 189.036 227.188 173.527ZM203.634 120.349C202.424 119.028 200.168 116.58 174.993 116.862C161.538 117.019 146.977 117.907 140.495 118.407C136.469 118.712 134.396 117.825 133.789 116.885C133.32 116.161 133.699 115.227 133.966 114.735C135.026 112.785 138.051 110.819 142.421 110.819C146.592 110.819 183.579 110.594 197.741 102.801C206.19 98.1526 223.991 102.082 232.029 104.529C232.873 110.108 233.314 115.819 233.314 121.63C233.314 127.874 232.8 133.999 231.828 139.973C226.76 140.457 213.121 141.331 197.089 138.804C193.341 138.214 191.887 137.513 191.369 137.171C192.113 135.84 195.4 133.311 197.235 131.9C200.948 129.042 204.156 126.573 204.644 123.645C204.843 122.449 204.484 121.279 203.634 120.349ZM205.449 47.113C197.708 54.4362 189.435 52.5005 180.711 50.4527C179.393 50.1434 178.092 49.8387 176.81 49.5703C168.188 47.7657 162.249 48.8067 151.469 50.6991C148.161 51.279 144.411 51.9365 139.931 52.6305C128.869 54.3451 119.154 52.7208 114.353 51.1067C116.022 50.5771 117.987 50.0314 119.919 49.4961C122.287 48.8386 124.735 48.1583 127.055 47.4118C129.28 46.6939 130.65 44.5719 130.387 42.249C130.124 39.9216 128.311 38.1546 125.979 37.9525C110.437 36.601 103.095 35.0235 97.9627 33.6584C97.8622 33.6321 97.6956 33.5877 97.6911 33.2932C97.6865 33.0262 97.819 32.9861 97.9251 32.9542C109.785 29.4009 120.208 31.0297 131.242 32.7532C140.608 34.2154 150.291 35.729 161.56 34.2896C171.753 32.9883 184.502 31.5907 188.456 31.1628C194.648 35.8922 200.347 41.2366 205.449 47.113ZM38.7429 41.582C49.2653 42.244 60.805 43.4007 67.6754 44.6037C56.7191 46.9977 41.3931 47.7035 32.9272 47.911C34.7872 45.7295 36.726 43.6173 38.7429 41.582ZM49.7432 101.477C50.8379 102.113 53.6789 103.762 93.4028 105.551C85.9606 108.063 75.6485 110.471 63.4646 110.471C32.0391 110.471 28.9491 106.939 28.657 106.266C28.657 106.262 28.6661 105.815 29.4663 104.827C33.9168 99.3387 35.1759 94.145 32.9215 90.5769C31.7777 88.7677 28.7916 85.9928 21.6187 87.7313C17.0351 88.8423 12.9887 89.7934 10.0799 90.4688C11.9669 83.8507 14.4458 77.4803 17.4438 71.4103C19.2877 70.6226 25.4904 68.9513 35.6951 75.8441C43.8692 81.3618 48.4132 79.7056 53.228 77.9534C57.7937 76.2869 62.9702 74.4001 74.4751 78.1646C88.9352 82.8937 100.401 81.9554 109.614 81.1974C115.886 80.685 121.33 80.2363 126.046 81.7464C120.368 84.9595 99.8691 89.7719 84.0975 87.7835C61.7901 84.9721 49.5229 89.9398 47.5641 95.7429C46.7982 98.0139 47.6532 100.264 49.7432 101.477ZM7.29262 140.361C13.6325 141.296 26.2723 142.281 39.2177 138.247C46.9305 135.841 49.912 137.051 55.3249 139.248C60.9066 141.511 68.5511 144.613 84.4995 144.613H132.547C133.132 144.613 133.61 145.09 133.61 145.676C133.61 146.197 133.238 146.638 132.726 146.722C121.998 148.501 84.8547 154.033 57.2541 150.655C38.4143 148.35 31.7311 154.158 26.8537 158.398C23.0305 161.724 20.6362 163.796 12.9598 161.506C10.4192 154.738 8.5078 147.666 7.29262 140.361ZM60.4227 218.827C57.1201 216.811 53.9309 214.628 50.86 212.297C65.9374 212.652 81.17 213.604 88.3336 214.921C76.3343 219.512 63.5603 219.033 60.4227 218.827ZM71.0473 224.555C77.5473 224.048 85.8301 222.627 93.6608 219.016C97.2791 217.347 97.665 215.259 97.3511 213.801C96.7234 210.88 94.1802 208.535 68.2324 207.126C57.6793 206.553 47.1062 206.375 43.6343 206.33C31.8223 195.735 22.2299 182.715 15.6529 168.057C16.693 168.204 17.6852 168.298 18.5894 168.298C24.3766 168.298 27.5704 165.52 30.6889 162.808C35.185 158.897 40.2852 154.462 56.544 156.455C84.9195 159.932 122.759 154.298 133.68 152.488C137.026 151.934 139.454 149.069 139.454 145.675C139.454 141.866 136.356 138.768 132.547 138.768H84.4995C69.6914 138.768 62.9441 136.031 57.5223 133.831C51.7498 131.489 47.191 129.639 37.4784 132.667C24.4027 136.744 11.3068 135.135 6.45133 134.296C5.98849 130.136 5.7425 125.912 5.7425 121.63C5.7425 113.117 6.68928 104.822 8.4706 96.838C11.1445 96.2251 16.5355 94.9765 22.9957 93.4111C25.8584 92.7171 27.5856 93.0744 27.9817 93.6989C28.4873 94.4991 28.105 97.2282 24.9282 101.147C22.2331 104.469 22.5961 107.113 23.3746 108.747C25.54 113.29 33.1866 116.316 63.4648 116.316C79.1759 116.316 91.9658 112.543 99.9287 109.379C102.105 108.515 103.353 106.3 102.962 103.991C102.571 101.69 100.667 100.013 98.3329 99.9152C71.5076 98.7829 58.1067 97.5582 53.9303 96.7489C56.4359 94.8336 64.7844 91.2424 83.3674 93.5825C91.9056 94.6565 103.353 93.9581 113.985 91.7116C125.701 89.2358 132.082 86.0922 132.955 82.3676C133.242 81.1417 133.371 78.1019 128.378 76.3646C122.402 74.2859 116.254 74.7894 109.136 75.3725C99.9927 76.1236 89.6316 76.9729 76.2925 72.6103C62.8713 68.2214 56.1412 70.6721 51.2272 72.462C47.0003 74.0029 44.6696 74.8521 38.9667 71.0008C31.3686 65.8693 25.2777 64.6748 20.9545 64.8427C23.1597 61.0297 25.5802 57.3564 28.1981 53.8381C34.6461 53.7976 59.5037 53.3607 73.579 49.1201C75.0698 48.6703 79.0296 47.4775 78.6357 44.1204C78.3697 41.8477 77.9677 38.4826 44.5617 36.1066C64.5982 18.5224 90.8381 7.84423 119.529 7.84423C142.259 7.84423 163.452 14.5482 181.241 26.0772C175.521 26.7169 167.61 27.6256 160.821 28.4932C150.372 29.823 141.106 28.3791 132.144 26.9786C120.953 25.2299 109.378 23.4218 96.2471 27.3564C93.5716 28.1576 91.8033 30.581 91.8468 33.3855C91.8914 36.2049 93.7463 38.5848 96.4607 39.3063C101.231 40.5756 107.795 42.0172 120.391 43.2967C119.71 43.4886 119.03 43.6769 118.356 43.864C114.063 45.0556 110.356 46.0853 108.104 47.2974C105.843 48.5154 105.588 50.5804 106.057 51.9774C107.501 56.2795 118.324 59.1949 130.258 59.1949C133.755 59.1949 137.347 58.945 140.826 58.4062C145.363 57.7031 149.144 57.0399 152.479 56.4555C162.872 54.6315 168.09 53.7148 175.614 55.2912C176.85 55.5492 178.105 55.8447 179.375 56.1427C188.298 58.2342 199.234 60.7926 209.172 51.6296C219.673 65.0474 227.229 80.8731 230.867 98.1265C222.474 95.8569 204.933 92.1729 194.924 97.6802C184.461 103.438 156.998 104.974 142.421 104.974C135.195 104.974 130.664 108.574 128.832 111.944C127.343 114.68 127.364 117.716 128.884 120.063C130.06 121.877 133.173 124.837 140.945 124.233C163.474 122.495 190.466 122.016 197.869 123.823C196.724 124.918 194.911 126.313 193.67 127.268C188.933 130.913 184.459 134.355 185.553 138.644C186.556 142.576 191.759 143.88 196.179 144.577C205.021 145.971 213.089 146.383 219.536 146.383C224.222 146.383 228.04 146.165 230.689 145.949C228.961 153.853 226.415 161.455 223.134 168.655C215.241 164.716 192.563 155.251 173.85 165.564C167.76 168.918 165.288 168.083 161.197 166.699C156.151 164.993 149.871 162.87 136.299 167.312C122.961 171.674 112.596 170.826 103.456 170.074C96.3365 169.489 90.1884 168.985 84.2119 171.066C79.2192 172.803 79.3482 175.843 79.6357 177.069C80.5079 180.793 86.8898 183.937 98.6057 186.413C109.237 188.659 120.684 189.359 129.224 188.284C147.756 185.945 156.111 189.517 158.641 191.435C154.325 192.274 140.924 193.491 114.258 194.616C111.924 194.715 110.02 196.391 109.63 198.693C109.238 200.999 110.485 203.215 112.662 204.08C119.057 206.62 138.472 211.551 164.406 211.551C172.804 211.551 181.89 211.031 191.434 209.747C171.821 225.782 146.78 235.416 119.529 235.416C102.198 235.416 85.7636 231.515 71.0473 224.555ZM199.421 202.567C163.199 209.149 132.453 203.723 119.75 200.227C158.935 198.447 161.758 196.81 162.848 196.178C164.938 194.964 165.793 192.715 165.027 190.444C163.068 184.641 150.801 179.675 128.494 182.485C112.722 184.473 92.2216 179.66 86.544 176.448C91.2605 174.94 96.7041 175.386 102.978 175.899C112.19 176.656 123.658 177.595 138.116 172.866C149.841 169.031 154.881 170.734 159.326 172.236C163.752 173.732 168.331 175.279 176.67 170.682C192.812 161.786 213.54 170.463 220.564 173.924C215.036 184.561 207.877 194.219 199.421 202.567Z" fill="white"/>
<g filter="url(#filter0_d_12_2)">
<path d="M131.437 120.892C130.882 124.853 130.883 124.854 130.884 124.854L130.887 124.854L130.893 124.855L130.911 124.857L130.965 124.865C131.011 124.871 131.073 124.879 131.152 124.888C131.309 124.908 131.532 124.934 131.813 124.964C132.376 125.023 133.176 125.097 134.158 125.159C136.116 125.283 138.833 125.362 141.864 125.18C147.713 124.828 155.633 123.458 161.161 118.648L161.162 118.648C166.257 114.214 168.48 109.721 169.315 106.075C169.725 104.282 169.784 102.761 169.726 101.636C169.697 101.074 169.639 100.61 169.581 100.26C169.552 100.084 169.523 99.937 169.497 99.8193C169.485 99.7603 169.473 99.7088 169.462 99.6648C169.457 99.6428 169.451 99.6227 169.447 99.6045L169.44 99.5787L169.437 99.5669L169.436 99.5612C169.435 99.5585 169.434 99.5557 165.57 100.588L169.434 99.5557C169.253 98.8764 168.895 98.2568 168.398 97.7596L161.484 90.8453L154.57 83.9311C154.072 83.4338 153.453 83.0765 152.773 82.895L151.741 86.7595C152.773 82.895 152.771 82.8943 152.768 82.8935L152.762 82.892L152.75 82.8889L152.725 82.8823C152.706 82.8776 152.686 82.8726 152.664 82.8673C152.62 82.8566 152.569 82.8446 152.51 82.8318C152.392 82.8061 152.245 82.7769 152.069 82.7478C151.719 82.6897 151.255 82.6317 150.693 82.6028C149.569 82.5449 148.047 82.604 146.254 83.0145C142.609 83.8489 138.115 86.0727 133.681 91.1678C128.871 96.6961 127.501 104.616 127.149 110.466C126.967 113.497 127.046 116.213 127.17 118.171C127.232 119.154 127.306 119.953 127.365 120.516C127.395 120.797 127.421 121.02 127.441 121.178C127.451 121.256 127.459 121.319 127.465 121.364L127.472 121.419L127.474 121.436L127.475 121.443L127.476 121.445C127.476 121.446 127.476 121.447 131.437 120.892ZM131.437 120.892L130.882 124.853C129.114 124.606 127.724 123.216 127.476 121.447L131.437 120.892Z" fill="black" stroke="black" stroke-width="8" stroke-miterlimit="10" stroke-linecap="round" stroke-linejoin="round"/>
<path d="M165.454 95.8364L161.516 96.5339C165.454 95.8364 165.455 95.8394 165.455 95.8424L165.456 95.8484L165.459 95.8608L165.463 95.8867C165.466 95.9044 165.469 95.923 165.472 95.9425C165.478 95.9816 165.484 96.0243 165.489 96.0706C165.501 96.1633 165.512 96.2703 165.521 96.3909C165.538 96.6321 165.547 96.928 165.532 97.2723C165.502 97.9635 165.379 98.8395 165.06 99.8468C164.413 101.893 163.019 104.285 160.315 106.695C157.228 109.446 153.143 110.494 150.295 110.931C148.801 111.161 147.474 111.248 146.518 111.278C146.038 111.293 145.644 111.294 145.361 111.291C145.219 111.289 145.105 111.287 145.021 111.284C144.979 111.283 144.944 111.282 144.917 111.281L144.883 111.279L144.871 111.279L144.866 111.279L144.864 111.279C144.862 111.278 144.861 111.278 145.046 107.283M165.454 95.8364L145.634 92.0146C142.883 95.1012 141.836 99.1862 141.398 102.034C141.168 103.529 141.081 104.855 141.051 105.811C141.036 106.291 141.035 106.685 141.038 106.968C141.04 107.11 141.042 107.224 141.045 107.308C141.046 107.35 141.047 107.385 141.048 107.412L141.05 107.446L141.05 107.458L141.05 107.463L141.051 107.466C141.051 107.467 141.051 107.468 145.046 107.283M165.454 95.8364C165.311 95.0291 164.924 94.2852 164.344 93.7055M165.454 95.8364L164.344 93.7055M145.046 107.283L144.861 111.278C142.798 111.183 141.146 109.531 141.051 107.468L145.046 107.283ZM155.795 90.8135C156.493 86.8748 156.49 86.8742 156.487 86.8737L156.481 86.8727L156.468 86.8705L156.442 86.8662C156.425 86.8633 156.406 86.8603 156.387 86.8574C156.347 86.8514 156.305 86.8454 156.258 86.8396C156.166 86.8279 156.059 86.8168 155.938 86.8081C155.697 86.7906 155.401 86.7824 155.057 86.7973C154.366 86.8272 153.49 86.9499 152.482 87.2687C150.436 87.9164 148.044 89.3102 145.634 92.0145L155.795 90.8135ZM155.795 90.8135L156.493 86.8748M155.795 90.8135L156.493 86.8748M164.344 93.7055L161.484 90.8453L158.624 87.9851C158.044 87.4053 157.3 87.0177 156.493 86.8748M164.344 93.7055L156.493 86.8748M149.043 107.107L149.043 107.108L149.043 107.107Z" fill="black" stroke="black" stroke-width="8" stroke-miterlimit="10" stroke-linecap="round" stroke-linejoin="round"/>
<path d="M178.49 119.166C179.289 119.964 180.388 120.388 181.516 120.332C182.644 120.277 183.696 119.747 184.412 118.874C193.972 107.217 198.187 93.469 200.607 84.5075C200.981 83.1251 200.587 81.6485 199.574 80.6359C198.562 79.6234 197.085 79.2293 195.703 79.6028C186.088 82.1999 174.646 88.7043 163.436 97.8977C162.563 98.6138 162.033 99.6657 161.977 100.794C161.921 101.922 162.345 103.021 163.144 103.819L178.49 119.166Z" fill="white" stroke="black" stroke-width="8" stroke-miterlimit="10" stroke-linecap="round" stroke-linejoin="round"/>
<path opacity="0.13" d="M171.081 103.925L171.081 103.925C169.605 104.379 168.129 104.707 166.688 104.959C165.404 105.183 164.092 104.768 163.171 103.846L163.143 103.818C162.345 103.02 161.921 101.921 161.977 100.793C162.033 99.6652 162.563 98.6135 163.436 97.8975C167.156 94.8464 170.885 92.1075 174.549 89.7111C175.959 88.7894 177.795 88.8493 179.141 89.8608C180.488 90.8723 181.056 92.6188 180.563 94.2292C180.483 94.4923 180.394 94.7736 180.294 95.0636L171.081 103.925ZM171.081 103.925C171.252 103.873 171.537 103.778 171.683 103.729C171.727 103.715 171.758 103.704 171.77 103.7C171.86 103.671 171.949 103.639 172.037 103.603M171.081 103.925L172.037 103.603M172.037 103.603C172.608 103.372 173.18 103.116 173.748 102.829L173.748 102.829M172.037 103.603L173.748 102.829M173.748 102.829C174.311 102.545 174.838 102.23 175.231 101.994C175.264 101.974 175.297 101.955 175.328 101.936C175.461 101.857 175.589 101.77 175.712 101.676M173.748 102.829L175.712 101.676M175.712 101.676C175.712 101.675 175.714 101.674 175.718 101.671C175.765 101.636 176.055 101.419 176.264 101.243L175.712 101.676ZM177.993 99.5005C177.875 99.6648 177.744 99.8199 177.602 99.9644C177.574 99.9928 177.544 100.023 177.513 100.055C177.21 100.364 176.765 100.819 176.264 101.242L177.993 99.5005ZM177.993 99.5005L178 99.4906C178.103 99.3482 178.258 99.1333 178.412 98.8979L178.414 98.8947M177.993 99.5005L178.414 98.8947M178.414 98.8947C178.826 98.2655 179.2 97.5541 179.455 97.0693C179.517 96.9523 179.572 96.8485 179.618 96.7622C179.669 96.6682 179.716 96.5721 179.759 96.4743M178.414 98.8947L179.759 96.4743M179.759 96.4743L179.768 96.4528C179.778 96.4303 179.801 96.378 179.828 96.3127L179.828 96.3116M179.759 96.4743L179.828 96.3116M179.828 96.3116C179.994 95.9024 180.149 95.4863 180.294 95.0637L179.828 96.3116Z" fill="white" stroke="black" stroke-width="8" stroke-miterlimit="10" stroke-linecap="round" stroke-linejoin="round"/>
<path opacity="0.13" d="M188.302 84.5258C188.452 83.0133 189.446 81.7164 190.868 81.1787C192.511 80.5571 194.127 80.0281 195.704 79.6027C197.086 79.2296 198.562 79.6239 199.574 80.6364C200.587 81.649 200.981 83.1254 200.607 84.5076C198.186 93.4692 193.972 107.217 184.412 118.874C183.696 119.747 182.644 120.277 181.516 120.333C180.388 120.388 179.289 119.964 178.49 119.166L172.795 113.471C171.892 112.567 171.474 111.287 171.672 110.024C171.87 108.762 172.658 107.67 173.795 107.085C177.459 105.201 180.501 102.931 182.72 99.7883C184.454 97.331 185.812 94.3493 186.839 91.2657L188.302 84.5258ZM188.302 84.5258C188.078 86.7907 187.569 89.0748 186.839 91.2656L188.302 84.5258Z" fill="white" stroke="black" stroke-width="8" stroke-miterlimit="10" stroke-linecap="round" stroke-linejoin="round"/>
<path d="M148.664 89.3403C149.463 90.1388 150.562 90.5626 151.69 90.507C152.818 90.4514 153.869 89.9215 154.586 89.0483C163.779 77.8381 170.284 66.3957 172.881 56.7814C173.254 55.3989 172.86 53.9224 171.847 52.9098C170.835 51.8973 169.358 51.5033 167.976 51.8767C159.014 54.2975 145.267 58.5122 133.609 68.0722C132.736 68.7883 132.206 69.8402 132.151 70.9682C132.095 72.0961 132.519 73.195 133.318 73.9936L148.664 89.3403Z" fill="white" stroke="black" stroke-width="8" stroke-miterlimit="10" stroke-linecap="round" stroke-linejoin="round"/>
<path opacity="0.13" d="M161.556 53.7363C160.683 54.0106 159.93 54.5759 159.424 55.338C159.373 55.4145 159.325 55.4661 159.29 55.4976C159.273 55.5131 159.26 55.523 159.251 55.529C159.242 55.5349 159.237 55.5371 159.237 55.5372L159.237 55.5372L159.228 55.5414C159.199 55.5553 159.176 55.5671 159.16 55.5751L159.146 55.5821C158.64 55.8319 158.193 56.1859 157.833 56.621C156.631 58.0758 155.352 59.4959 154.014 60.9634L154.014 60.9635C153.078 61.9896 152.09 63.0734 151.132 64.1998L151.131 64.2002C151.086 64.2531 151.025 64.3261 150.981 64.3782C150.963 64.4002 150.948 64.4185 150.938 64.4299C150.91 64.4628 150.883 64.4961 150.856 64.5298C150.827 64.5673 150.796 64.6064 150.764 64.6469C150.601 64.8527 150.411 65.0934 150.227 65.3348L150.226 65.3365C149.797 65.901 149.376 66.4842 148.969 67.0874L148.968 67.0877C146.455 70.8135 144.185 74.7184 142.076 78.6155C142.02 78.7199 141.968 78.8266 141.921 78.9356L141.902 78.9817L141.893 79.0012C141.245 80.506 141.579 82.2542 142.738 83.4129L148.664 89.3391C149.463 90.1377 150.562 90.5615 151.69 90.5059C152.818 90.4502 153.87 89.9204 154.586 89.0472C163.779 77.837 170.284 66.3945 172.881 56.7802C173.254 55.3977 172.86 53.9211 171.847 52.9085C170.835 51.896 169.358 51.5021 167.975 51.8757C166.031 52.4013 163.866 53.0111 161.556 53.7363ZM159.128 55.5908C159.13 55.5901 159.134 55.588 159.139 55.5856L159.13 55.5901L159.128 55.5908Z" fill="white" stroke="black" stroke-width="8" stroke-miterlimit="10" stroke-linecap="round" stroke-linejoin="round"/>
<path d="M165.799 106.474C167.042 107.718 168.953 108.003 170.506 107.177C182.523 100.785 194.733 91.764 206.012 80.4852C227.35 59.1468 240.781 34.2884 243.328 13.6141C243.479 12.3915 243.058 11.1676 242.187 10.2966C241.316 9.42549 240.092 9.00438 238.869 9.15502C218.195 11.7023 193.337 25.1332 171.998 46.4716L174.826 49.3001L171.998 46.4716C160.719 57.7504 151.698 69.9602 145.306 81.9776C144.48 83.5305 144.766 85.4408 146.009 86.6845L165.799 106.474Z" fill="black" stroke="black" stroke-width="8" stroke-miterlimit="10" stroke-linecap="round" stroke-linejoin="round"/>
<path d="M174.081 99.6631L152.666 78.2482" stroke="black" stroke-width="8" stroke-miterlimit="10" stroke-linecap="round" stroke-linejoin="round"/>
<path d="M200.378 67.0313C208.622 67.0313 215.305 60.3485 215.305 52.1049C215.305 43.8612 208.622 37.1784 200.378 37.1784C192.135 37.1784 185.452 43.8612 185.452 52.1049C185.452 60.3485 192.135 67.0313 200.378 67.0313Z" fill="white" stroke="black" stroke-width="8" stroke-miterlimit="10" stroke-linecap="round" stroke-linejoin="round"/>
<path d="M233.454 34.1331L218.662 19.3416" stroke="black" stroke-width="8" stroke-miterlimit="10" stroke-linecap="round" stroke-linejoin="round"/>
</g>
<g filter="url(#filter1_d_12_2)">
<path d="M165.57 100.588L158.655 93.6738L151.741 86.7595C151.741 86.7595 144.502 84.8258 136.699 93.7935C128.896 102.761 131.437 120.892 131.437 120.892C131.437 120.892 149.568 123.433 158.536 115.63C167.503 107.827 165.57 100.588 165.57 100.588Z" fill="black" stroke="url(#paint0_linear_12_2)" stroke-width="4" stroke-miterlimit="10" stroke-linecap="round" stroke-linejoin="round"/>
<path d="M161.516 96.5339L158.655 93.6737L155.795 90.8135C155.795 90.8135 152.572 90.2426 148.62 94.6761C144.668 99.1096 145.046 107.283 145.046 107.283C145.046 107.283 153.22 107.661 157.653 103.709C162.086 99.7574 161.516 96.5339 161.516 96.5339Z" fill="black" stroke="url(#paint1_linear_12_2)" stroke-width="4" stroke-miterlimit="10" stroke-linecap="round" stroke-linejoin="round"/>
<path d="M181.319 116.337C190.308 105.377 194.349 92.3379 196.746 83.4644C187.872 85.8614 176.933 92.002 165.972 100.991L181.319 116.337Z" fill="url(#paint2_linear_12_2)" stroke="url(#paint3_linear_12_2)" stroke-width="2" stroke-miterlimit="10" stroke-linecap="round" stroke-linejoin="round"/>
<path opacity="0.13" d="M169.906 100.102C170.117 100.037 170.327 99.9631 170.538 99.8949C171.015 99.7017 171.486 99.4905 171.946 99.2584C172.403 99.0275 172.837 98.765 173.276 98.5029C173.412 98.3987 173.551 98.2982 173.681 98.1885C174.061 97.8671 174.402 97.5139 174.749 97.1604C174.857 97.0109 174.965 96.8611 175.066 96.7065C175.454 96.1132 175.762 95.4848 176.098 94.8632C176.105 94.8464 176.113 94.8296 176.12 94.8128C176.259 94.4675 176.39 94.1184 176.511 93.7659C176.591 93.5317 176.666 93.2956 176.739 93.0589C173.201 95.3722 169.588 98.0251 165.972 100.99L166 101.018C167.319 100.788 168.626 100.495 169.906 100.102Z" fill="url(#paint4_linear_12_2)" stroke="url(#paint5_linear_12_2)" stroke-width="2" stroke-miterlimit="10" stroke-linecap="round" stroke-linejoin="round"/>
<path opacity="0.13" d="M192.283 84.9201C192.027 87.5076 191.449 90.0834 190.634 92.5297C189.527 95.8533 188.016 99.2216 185.988 102.095C183.278 105.934 179.643 108.576 175.624 110.642L181.319 116.337C190.307 105.377 194.349 92.3381 196.746 83.4645C195.31 83.8521 193.819 84.3392 192.283 84.9201Z" fill="url(#paint6_linear_12_2)" stroke="url(#paint7_linear_12_2)" stroke-width="2" stroke-miterlimit="10" stroke-linecap="round" stroke-linejoin="round"/>
<path d="M151.493 86.5118C160.481 75.5513 166.622 64.6118 169.019 55.7383C160.145 58.1353 147.106 62.1765 136.146 71.1651L151.493 86.5118Z" fill="url(#paint8_linear_12_2)" stroke="url(#paint9_linear_12_2)" stroke-width="2" stroke-miterlimit="10" stroke-linecap="round" stroke-linejoin="round"/>
<path opacity="0.13" d="M162.755 57.5526C162.303 58.2328 161.693 58.7975 160.959 59.1475C160.945 59.1543 160.931 59.1617 160.917 59.1685C159.648 60.7049 158.311 62.1873 156.969 63.6589C156.027 64.6922 155.085 65.7261 154.178 66.7914C154.117 66.8633 154.057 66.9359 153.996 67.008C153.8 67.2567 153.603 67.5045 153.411 67.7569C153.021 68.2693 152.644 68.7913 152.284 69.3248C149.868 72.9066 147.666 76.6902 145.595 80.5189C145.585 80.5407 145.576 80.5626 145.566 80.5845L151.493 86.5107C160.481 75.5502 166.622 64.6107 169.019 55.7372C167.104 56.2547 164.995 56.8491 162.755 57.5526Z" fill="url(#paint10_linear_12_2)" stroke="url(#paint11_linear_12_2)" stroke-width="2" stroke-miterlimit="10" stroke-linecap="round" stroke-linejoin="round"/>
<path d="M168.627 103.645C180.27 97.4528 192.164 88.6764 203.183 77.6568C224.11 56.7294 236.953 32.6485 239.358 13.125C219.835 15.5305 195.754 28.3727 174.826 49.3001C163.807 60.3197 155.03 72.2136 148.838 83.8561L168.627 103.645Z" fill="black" stroke="url(#paint12_linear_12_2)" stroke-width="4" stroke-miterlimit="10" stroke-linecap="round" stroke-linejoin="round"/>
<path d="M174.081 99.6631L152.666 78.2482" stroke="url(#paint13_linear_12_2)" stroke-width="4" stroke-miterlimit="10" stroke-linecap="round" stroke-linejoin="round"/>
<path d="M200.378 63.0313C206.413 63.0313 211.305 58.1394 211.305 52.1049C211.305 46.0704 206.413 41.1784 200.378 41.1784C194.344 41.1784 189.452 46.0704 189.452 52.1049C189.452 58.1394 194.344 63.0313 200.378 63.0313Z" fill="url(#paint14_linear_12_2)" stroke="url(#paint15_linear_12_2)" stroke-width="2" stroke-miterlimit="10" stroke-linecap="round" stroke-linejoin="round"/>
<path d="M233.454 34.1331L218.662 19.3416" stroke="url(#paint16_linear_12_2)" stroke-width="4" stroke-miterlimit="10" stroke-linecap="round" stroke-linejoin="round"/>
</g>
<defs>
<filter id="filter0_d_12_2" x="117.942" y="0.0249391" width="134.516" height="134.362" filterUnits="userSpaceOnUse" color-interpolation-filters="sRGB">
<feFlood flood-opacity="0" result="BackgroundImageFix"/>
<feColorMatrix in="SourceAlpha" type="matrix" values="0 0 0 0 0 0 0 0 0 0 0 0 0 0 0 0 0 0 127 0" result="hardAlpha"/>
<feOffset/>
<feGaussianBlur stdDeviation="2.55"/>
<feComposite in2="hardAlpha" operator="out"/>
<feColorMatrix type="matrix" values="0 0 0 0 0 0 0 0 0 0 0 0 0 0 0 0 0 0 0.84 0"/>
<feBlend mode="normal" in2="BackgroundImageFix" result="effect1_dropShadow_12_2"/>
<feBlend mode="normal" in="SourceGraphic" in2="effect1_dropShadow_12_2" result="shape"/>
</filter>
<filter id="filter1_d_12_2" x="123.942" y="6.02498" width="122.516" height="122.362" filterUnits="userSpaceOnUse" color-interpolation-filters="sRGB">
<feFlood flood-opacity="0" result="BackgroundImageFix"/>
<feColorMatrix in="SourceAlpha" type="matrix" values="0 0 0 0 0 0 0 0 0 0 0 0 0 0 0 0 0 0 127 0" result="hardAlpha"/>
<feOffset/>
<feGaussianBlur stdDeviation="2.55"/>
<feComposite in2="hardAlpha" operator="out"/>
<feColorMatrix type="matrix" values="0 0 0 0 0 0 0 0 0 0 0 0 0 0 0 0 0 0 0.84 0"/>
<feBlend mode="normal" in2="BackgroundImageFix" result="effect1_dropShadow_12_2"/>
<feBlend mode="normal" in="SourceGraphic" in2="effect1_dropShadow_12_2" result="shape"/>
</filter>
<linearGradient id="paint0_linear_12_2" x1="148.393" y1="86.584" x2="148.393" y2="121.287" gradientUnits="userSpaceOnUse">
<stop stop-color="#F28802"/>
<stop offset="1" stop-color="#F25E02"/>
</linearGradient>
<linearGradient id="paint1_linear_12_2" x1="153.288" y1="90.7895" x2="153.288" y2="107.292" gradientUnits="userSpaceOnUse">
<stop stop-color="#F28802"/>
<stop offset="1" stop-color="#F25E02"/>
</linearGradient>
<linearGradient id="paint2_linear_12_2" x1="181.359" y1="83.4644" x2="181.359" y2="116.337" gradientUnits="userSpaceOnUse">
<stop stop-color="#EAA072"/>
<stop offset="1" stop-color="#F25E02"/>
</linearGradient>
<linearGradient id="paint3_linear_12_2" x1="181.359" y1="83.4644" x2="181.359" y2="116.337" gradientUnits="userSpaceOnUse">
<stop stop-color="#F28802"/>
<stop offset="1" stop-color="#F25E02"/>
</linearGradient>
<linearGradient id="paint4_linear_12_2" x1="171.355" y1="93.0589" x2="171.355" y2="101.018" gradientUnits="userSpaceOnUse">
<stop stop-color="#EAA072"/>
<stop offset="1" stop-color="#F25E02"/>
</linearGradient>
<linearGradient id="paint5_linear_12_2" x1="171.355" y1="93.0589" x2="171.355" y2="101.018" gradientUnits="userSpaceOnUse">
<stop stop-color="#F28802"/>
<stop offset="1" stop-color="#F25E02"/>
</linearGradient>
<linearGradient id="paint6_linear_12_2" x1="186.185" y1="83.4645" x2="186.185" y2="116.337" gradientUnits="userSpaceOnUse">
<stop stop-color="#EAA072"/>
<stop offset="1" stop-color="#F25E02"/>
</linearGradient>
<linearGradient id="paint7_linear_12_2" x1="186.185" y1="83.4645" x2="186.185" y2="116.337" gradientUnits="userSpaceOnUse">
<stop stop-color="#F28802"/>
<stop offset="1" stop-color="#F25E02"/>
</linearGradient>
<linearGradient id="paint8_linear_12_2" x1="152.582" y1="55.7383" x2="152.582" y2="86.5118" gradientUnits="userSpaceOnUse">
<stop stop-color="#EAA072"/>
<stop offset="1" stop-color="#F25E02"/>
</linearGradient>
<linearGradient id="paint9_linear_12_2" x1="152.582" y1="55.7383" x2="152.582" y2="86.5118" gradientUnits="userSpaceOnUse">
<stop stop-color="#F28802"/>
<stop offset="1" stop-color="#F25E02"/>
</linearGradient>
<linearGradient id="paint10_linear_12_2" x1="157.293" y1="55.7372" x2="157.293" y2="86.5107" gradientUnits="userSpaceOnUse">
<stop stop-color="#EAA072"/>
<stop offset="1" stop-color="#F25E02"/>
</linearGradient>
<linearGradient id="paint11_linear_12_2" x1="157.293" y1="55.7372" x2="157.293" y2="86.5107" gradientUnits="userSpaceOnUse">
<stop stop-color="#F28802"/>
<stop offset="1" stop-color="#F25E02"/>
</linearGradient>
<linearGradient id="paint12_linear_12_2" x1="194.098" y1="13.125" x2="194.098" y2="103.645" gradientUnits="userSpaceOnUse">
<stop stop-color="#F28802"/>
<stop offset="1" stop-color="#F25E02"/>
</linearGradient>
<linearGradient id="paint13_linear_12_2" x1="163.373" y1="78.2482" x2="163.373" y2="99.6631" gradientUnits="userSpaceOnUse">
<stop stop-color="#F28802"/>
<stop offset="1" stop-color="#F25E02"/>
</linearGradient>
<linearGradient id="paint14_linear_12_2" x1="200.378" y1="41.1784" x2="200.378" y2="63.0313" gradientUnits="userSpaceOnUse">
<stop stop-color="#EAA072"/>
<stop offset="1" stop-color="#F25E02"/>
</linearGradient>
<linearGradient id="paint15_linear_12_2" x1="200.378" y1="41.1784" x2="200.378" y2="63.0313" gradientUnits="userSpaceOnUse">
<stop stop-color="#F28802"/>
<stop offset="1" stop-color="#F25E02"/>
</linearGradient>
<linearGradient id="paint16_linear_12_2" x1="226.058" y1="19.3416" x2="226.058" y2="34.1331" gradientUnits="userSpaceOnUse">
<stop stop-color="#F28802"/>
<stop offset="1" stop-color="#F25E02"/>
</linearGradient>
</defs>
</svg>
