<svg width="501" height="121" viewBox="0 0 501 121" fill="none" xmlns="http://www.w3.org/2000/svg">
<path d="M82.176 90.6314C81.0667 91.8537 79.3173 93.1198 76.928 94.4295C74.5387 95.6519 71.7653 96.787 68.608 97.8347C65.536 98.8825 62.3787 99.712 59.136 100.323C55.8933 101.022 52.8213 101.371 49.92 101.371C42.24 101.371 35.328 100.236 29.184 97.9657C23.04 95.6082 17.792 92.3776 13.44 88.2739C9.088 84.0829 5.76 79.1496 3.456 73.4743C1.152 67.7989 0 61.5996 0 54.8765C0 46.0578 1.28 38.4179 3.84 31.9567C6.48533 25.4082 10.0267 19.9948 14.464 15.7164C18.9867 11.3507 24.1493 8.12015 29.952 6.02463C35.84 3.92911 41.984 2.88135 48.384 2.88135C54.4427 2.88135 59.9893 3.57985 65.024 4.97686C70.0587 6.28657 74.3253 7.94552 77.824 9.95373L71.808 27.6347C70.272 26.7616 68.224 25.8884 65.664 25.0153C63.104 24.1422 60.5013 23.4437 57.856 22.9198C55.2107 22.3086 52.864 22.003 50.816 22.003C45.696 22.003 41.1733 22.6578 37.248 23.9675C33.3227 25.2772 29.9947 27.2418 27.264 29.8612C24.6187 32.4806 22.6133 35.7549 21.248 39.684C19.8827 43.5258 19.2 48.0224 19.2 53.1739C19.2 57.7142 19.968 61.8179 21.504 65.4851C23.04 69.0649 25.1733 72.1209 27.904 74.653C30.72 77.1851 34.0053 79.106 37.76 80.4157C41.6 81.7254 45.824 82.3802 50.432 82.3802C53.0773 82.3802 55.5093 82.2056 57.728 81.8564C59.9467 81.4198 61.824 80.7649 63.36 79.8918V68.2355H47.104V49.8996H82.176V90.6314Z" fill="white"/>
<path d="M120.796 101.895C113.969 101.895 108.167 100.585 103.388 97.9657C98.6947 95.3463 95.1107 91.7228 92.636 87.0952C90.1614 82.4676 88.924 77.1414 88.924 71.1168C88.924 65.3541 90.3747 60.159 93.276 55.5314C96.1773 50.9037 100.06 47.2366 104.924 44.5299C109.788 41.7358 115.207 40.3388 121.18 40.3388C129.201 40.3388 135.772 42.7399 140.892 47.5422C146.097 52.2571 149.468 59.1112 151.004 68.1045L107.484 82.2493L103.516 72.2955L135.004 61.425L131.292 63.1276C130.609 60.8575 129.372 58.8929 127.58 57.234C125.873 55.4877 123.271 54.6146 119.772 54.6146C117.127 54.6146 114.78 55.2694 112.732 56.5791C110.769 57.8015 109.233 59.5914 108.124 61.9489C107.1 64.219 106.588 66.9258 106.588 70.069C106.588 73.6489 107.228 76.6612 108.508 79.106C109.788 81.4634 111.537 83.2534 113.756 84.4758C115.975 85.6982 118.449 86.3093 121.18 86.3093C123.143 86.3093 125.02 85.9601 126.812 85.2616C128.689 84.5631 130.524 83.6463 132.316 82.5112L140.252 96.1321C137.265 97.8784 134.023 99.2754 130.524 100.323C127.111 101.371 123.868 101.895 120.796 101.895Z" fill="white"/>
<path d="M154.299 70.9858C154.299 65.1358 155.621 59.897 158.267 55.2694C160.997 50.6418 164.795 47.0183 169.659 44.3989C174.523 41.6922 180.112 40.3388 186.427 40.3388C192.827 40.3388 198.373 41.6922 203.067 44.3989C207.76 47.0183 211.344 50.6418 213.819 55.2694C216.379 59.897 217.659 65.1358 217.659 70.9858C217.659 76.8358 216.379 82.1183 213.819 86.8332C211.344 91.4608 207.76 95.128 203.067 97.8347C198.373 100.541 192.741 101.895 186.171 101.895C180.027 101.895 174.523 100.672 169.659 98.2276C164.88 95.7829 161.125 92.2467 158.395 87.619C155.664 82.9914 154.299 77.447 154.299 70.9858ZM172.347 71.1168C172.347 74.0855 172.944 76.7922 174.139 79.237C175.333 81.5944 176.955 83.4717 179.003 84.8687C181.051 86.2657 183.355 86.9642 185.915 86.9642C188.731 86.9642 191.163 86.2657 193.211 84.8687C195.259 83.4717 196.837 81.5944 197.947 79.237C199.056 76.7922 199.611 74.0855 199.611 71.1168C199.611 68.0608 199.056 65.3541 197.947 62.9967C196.837 60.6392 195.259 58.762 193.211 57.3649C191.163 55.9679 188.731 55.2694 185.915 55.2694C183.355 55.2694 181.051 55.9679 179.003 57.3649C176.955 58.762 175.333 60.6392 174.139 62.9967C172.944 65.3541 172.347 68.0608 172.347 71.1168Z" fill="white"/>
<path d="M225.631 120.276V0H225.759L278.111 75.9627L270.175 74.1291L322.399 0H322.655V100.323H304.095V42.8272L305.247 52.65L273.375 99.0135H273.119L240.351 52.65L243.551 43.6131V120.276H225.631Z" fill="white"/>
<path d="M358.654 100.323C353.449 100.323 348.713 99.2754 344.446 97.1799C340.265 94.997 336.937 91.6791 334.462 87.2261C331.987 82.7731 330.75 77.0978 330.75 70.2C330.75 63.7388 332.03 58.1508 334.59 53.4358C337.15 48.7209 340.521 45.0974 344.702 42.5653C348.883 39.9459 353.321 38.6362 358.014 38.6362C363.561 38.6362 367.742 39.5966 370.558 41.5175C373.459 43.3511 375.849 45.403 377.726 47.6731L376.958 49.8996L378.622 41.5175H395.262V98.7515H377.342V86.3093L378.75 90.2384C378.579 90.2384 378.067 90.7623 377.214 91.8101C376.361 92.7705 375.081 93.9493 373.374 95.3463C371.753 96.656 369.705 97.7911 367.23 98.7515C364.841 99.7993 361.982 100.323 358.654 100.323ZM363.774 85.3926C365.907 85.3926 367.827 85.087 369.534 84.4758C371.241 83.7772 372.734 82.8168 374.014 81.5944C375.294 80.2847 376.403 78.6694 377.342 76.7485V62.7347C376.659 60.8138 375.635 59.1985 374.27 57.8888C372.905 56.4918 371.283 55.444 369.406 54.7455C367.529 53.9597 365.438 53.5668 363.134 53.5668C360.574 53.5668 358.185 54.2653 355.966 55.6623C353.833 56.972 352.126 58.8056 350.846 61.1631C349.566 63.5205 348.926 66.2272 348.926 69.2832C348.926 72.3392 349.609 75.0896 350.974 77.5343C352.339 79.9791 354.131 81.9 356.35 83.297C358.654 84.694 361.129 85.3926 363.774 85.3926Z" fill="white"/>
<path d="M421.49 42.9618L423.154 58.6782L422.771 56.3208C424.392 52.9155 426.611 50.0342 429.427 47.6767C432.243 45.232 435.016 43.3547 437.747 42.045C440.563 40.7353 447.208 39.1601 448.659 39.1601L462.159 63.9994C456.287 49.8996 435.485 58.5909 432.498 60.5118C429.512 62.4327 427.208 64.9648 425.586 68.1081C423.965 71.2514 423.154 74.482 423.154 77.7999V100.196H405.362V42.9618H421.49Z" fill="white"/>
<path d="M476.511 98.7515C471.903 98.7515 467.594 97.922 463.583 96.2631C459.658 94.6041 456.33 92.2903 453.599 89.3217L461.023 79.237C463.754 81.7691 466.271 83.6026 468.575 84.7377C470.965 85.7855 473.098 86.3093 474.975 86.3093C476.426 86.3093 477.706 86.1784 478.815 85.9164C480.01 85.5672 480.949 85.087 481.631 84.4758C482.314 83.7773 482.655 82.9041 482.655 81.8564C482.655 80.372 482.058 79.1933 480.863 78.3202C479.754 77.447 478.303 76.7485 476.511 76.2246C474.719 75.6135 472.799 75.0023 470.751 74.3911C465.631 72.7321 461.919 70.331 459.615 67.1877C457.397 63.9571 456.287 60.4646 456.287 56.7101C456.287 53.8287 450.208 54.2217 451.659 51.3403C453.195 48.3717 445.159 39.7623 448.659 39.1601C451.659 39.1601 473.226 37.7194 478.431 37.7194C483.125 37.7194 487.093 38.1996 490.335 39.1601C493.578 40.1205 496.65 41.6922 499.551 43.875L492.767 54.6146C491.146 53.3049 489.311 52.2134 487.263 51.3403C485.301 50.3799 483.466 49.856 481.759 49.7687C480.223 49.6814 478.901 49.856 477.791 50.2925C476.767 50.7291 475.957 51.2967 475.359 51.9952C474.762 52.6937 474.463 53.4358 474.463 54.2217C474.378 55.8806 474.975 57.1903 476.255 58.1508C477.621 59.1112 479.327 59.8534 481.375 60.3773C483.423 60.9011 485.429 61.5123 487.391 62.2108C490.122 63.084 492.469 64.2627 494.431 65.747C496.394 67.2314 497.887 69.0213 498.911 71.1168C500.021 73.125 500.575 75.5698 500.575 78.4511C500.575 81.9437 499.679 85.2616 497.887 88.4049C496.181 91.4608 493.535 93.9493 489.951 95.8702C486.453 97.7911 481.973 98.7515 476.511 98.7515Z" fill="white"/>
</svg>
