<svg width="130" height="96" viewBox="0 0 130 96" fill="none" xmlns="http://www.w3.org/2000/svg">
<g clip-path="url(#clip0_408_7)">
<g filter="url(#filter0_d_408_7)">
<path d="M61.3006 27.788L27.2712 61.8174C25.5043 63.5843 25.5043 66.4489 27.2712 68.2158C29.038 69.9826 31.9026 69.9826 33.6695 68.2158L67.6989 34.1863C69.4658 32.4195 69.4658 29.5548 67.6989 27.788C65.9321 26.0211 63.0674 26.0212 61.3006 27.788Z" fill="white"/>
<path d="M61.3006 27.788L27.2712 61.8174C25.5043 63.5843 25.5043 66.4489 27.2712 68.2158C29.038 69.9826 31.9026 69.9826 33.6695 68.2158L67.6989 34.1863C69.4658 32.4195 69.4658 29.5548 67.6989 27.788C65.9321 26.0211 63.0674 26.0212 61.3006 27.788Z" fill="white"/>
<path d="M61.3006 27.788L27.2712 61.8174C25.5043 63.5843 25.5043 66.4489 27.2712 68.2158C29.038 69.9826 31.9026 69.9826 33.6695 68.2158L67.6989 34.1863C69.4658 32.4195 69.4658 29.5548 67.6989 27.788C65.9321 26.0211 63.0674 26.0212 61.3006 27.788Z" stroke="white" stroke-width="2"/>
<path d="M61.7871 34.184L95.8165 68.2134C97.5834 69.9803 100.448 69.9803 102.215 68.2134C103.982 66.4466 103.982 63.582 102.215 61.8151L68.1854 27.7857C66.4186 26.0188 63.5539 26.0188 61.7871 27.7857C60.0202 29.5525 60.0202 32.4171 61.7871 34.184Z" fill="white"/>
<path d="M61.7871 34.184L95.8165 68.2134C97.5834 69.9803 100.448 69.9803 102.215 68.2134C103.982 66.4466 103.982 63.582 102.215 61.8151L68.1854 27.7857C66.4186 26.0188 63.5539 26.0188 61.7871 27.7857C60.0202 29.5525 60.0202 32.4171 61.7871 34.184Z" fill="white"/>
<path d="M61.7871 34.184L95.8165 68.2134C97.5834 69.9803 100.448 69.9803 102.215 68.2134C103.982 66.4466 103.982 63.582 102.215 61.8151L68.1854 27.7857C66.4186 26.0188 63.5539 26.0188 61.7871 27.7857C60.0202 29.5525 60.0202 32.4171 61.7871 34.184Z" stroke="white" stroke-width="2"/>
</g>
</g>
<defs>
<filter id="filter0_d_408_7" x="0.446026" y="0.960449" width="128.594" height="94.0806" filterUnits="userSpaceOnUse" color-interpolation-filters="sRGB">
<feFlood flood-opacity="0" result="BackgroundImageFix"/>
<feColorMatrix in="SourceAlpha" type="matrix" values="0 0 0 0 0 0 0 0 0 0 0 0 0 0 0 0 0 0 127 0" result="hardAlpha"/>
<feOffset/>
<feGaussianBlur stdDeviation="12.25"/>
<feComposite in2="hardAlpha" operator="out"/>
<feColorMatrix type="matrix" values="0 0 0 0 0 0 0 0 0 0 0 0 0 0 0 0 0 0 0.25 0"/>
<feBlend mode="normal" in2="BackgroundImageFix" result="effect1_dropShadow_408_7"/>
<feBlend mode="normal" in="SourceGraphic" in2="effect1_dropShadow_408_7" result="shape"/>
</filter>
<clipPath id="clip0_408_7">
<rect width="130" height="96" fill="white" transform="matrix(-1 0 0 -1 130 96)"/>
</clipPath>
</defs>
</svg>
